<svg xmlns="http://www.w3.org/2000/svg" xmlns:xlink="http://www.w3.org/1999/xlink" version="1.1" width="129.20001" height="145.19995" viewBox="0 0 129.20001 145.19995">
<defs>
<clipPath id="clip_0">
<path transform="matrix(1,0,0,-1,-47.4,816.6)" d="M47.4 671.4H176.6V816.6H47.4Z" fill-rule="evenodd"/>
</clipPath>
</defs>
<g clip-path="url(#clip_0)">
<path transform="matrix(1,0,0,-1,-47.4,816.6)" d="M64 816 48 800V752L64 736H112L128 752V800L112 816 96 800H80Z" fill="#8b0000" fill-rule="evenodd"/>
<path transform="matrix(1,0,0,-1,-47.4,816.6)" d="M64 784V768H80V784Z" fill="#ffffff" fill-rule="evenodd"/>
<path transform="matrix(1,0,0,-1,-47.4,816.6)" d="M96 784V768H112V784Z" fill="#ffffff" fill-rule="evenodd"/>
<path transform="matrix(1,0,0,-1,-47.4,816.6)" d="M87.0588 768 80 752H96Z" fill="#ffffff" fill-rule="evenodd"/>
<path transform="matrix(1,0,0,-1,-47.4,816.6)" stroke-width="1.2" stroke-linecap="butt" stroke-linejoin="round" fill="none" stroke="#000000" d="M128 752V800L112 816 96 800H80L64 816 48 800V752L64 736H112L128 752"/>
<path transform="matrix(1,0,0,-1,-47.4,816.6)" stroke-width="1.2" stroke-linecap="butt" stroke-linejoin="round" fill="none" stroke="#000000" d="M64 784H80V768H64V784"/>
<path transform="matrix(1,0,0,-1,-47.4,816.6)" stroke-width="1.2" stroke-linecap="butt" stroke-linejoin="round" fill="none" stroke="#000000" d="M96 784H112V768H96V784"/>
<path transform="matrix(1,0,0,-1,-47.4,816.6)" stroke-width="1.2" stroke-linecap="butt" stroke-linejoin="round" fill="none" stroke="#000000" d="M80 752H96L87.0588 768 80 752"/>
<path transform="matrix(1,0,0,-1,-47.4,816.6)" d="M64 736V672H80V688H96V672H144V688H160V672H176V784H160V736Z" fill="#ffd700" fill-rule="evenodd"/>
<path transform="matrix(1,0,0,-1,-47.4,816.6)" stroke-width=".4" stroke-linecap="butt" stroke-linejoin="round" fill="none" stroke="#ffd700" d="M64 736V672H80V688H96V672H144V688H160V672H176V784H160V736Z"/>
<path transform="matrix(1,0,0,-1,-47.4,816.6)" stroke-width="1.2" stroke-linecap="butt" stroke-linejoin="round" fill="none" stroke="#000000" d="M64 736V672H80V688H96V672H144V688H160V672H176V784H160V736H112"/>
<path transform="matrix(1,0,0,-1,-47.4,816.6)" stroke-width="1.2" stroke-linecap="butt" stroke-linejoin="round" fill="none" stroke="#000000" d="M112 736H64"/>
</g>
</svg>
