<svg xmlns="http://www.w3.org/2000/svg" xmlns:xlink="http://www.w3.org/1999/xlink" version="1.1" width="129.20001" height="145.19995" viewBox="0 0 129.20001 145.19995">
<defs>
<clipPath id="clip_1">
<path transform="matrix(1,0,0,-1,-47.4,816.6)" d="M47.4 671.4H176.6V816.6H47.4Z" fill-rule="evenodd"/>
</clipPath>
</defs>
<g clip-path="url(#clip_1)">
<path transform="matrix(1,0,0,-1,-47.4,816.6)" stroke-width="1.2" stroke-linecap="butt" stroke-linejoin="round" fill="none" stroke="#000000" d="M128 752V800L112 816 96 800H80L64 816 48 800V752L64 736H112L128 752"/>
<path transform="matrix(1,0,0,-1,-47.4,816.6)" stroke-width="1.2" stroke-linecap="butt" stroke-linejoin="round" fill="none" stroke="#000000" d="M64 784H80V768H64V784"/>
<path transform="matrix(1,0,0,-1,-47.4,816.6)" stroke-width="1.2" stroke-linecap="butt" stroke-linejoin="round" fill="none" stroke="#000000" d="M96 784H112V768H96V784"/>
<path transform="matrix(1,0,0,-1,-47.4,816.6)" stroke-width="1.2" stroke-linecap="butt" stroke-linejoin="round" fill="none" stroke="#000000" d="M80 752H96L87.0588 768 80 752"/>
<path transform="matrix(1,0,0,-1,-47.4,816.6)" stroke-width="1.2" stroke-linecap="butt" stroke-linejoin="round" fill="none" stroke="#000000" d="M64 736V672H80V688H96V672H144V688H160V672H176V784H160V736H112"/>
<path transform="matrix(1,0,0,-1,-47.4,816.6)" stroke-width="1.2" stroke-linecap="butt" stroke-linejoin="round" fill="none" stroke="#000000" d="M112 736H64"/>
<path transform="matrix(1,0,0,-1,-47.4,816.6)" stroke-width=".4" stroke-linecap="butt" stroke-linejoin="round" fill="none" stroke="#000000" d="M128 752 160 736"/>
<path transform="matrix(1,0,0,-1,-47.4,816.6)" stroke-width=".4" stroke-linecap="butt" stroke-linejoin="round" fill="none" stroke="#000000" d="M160 784 128 800"/>
<path transform="matrix(1,0,0,-1,-47.4,816.6)" stroke-width=".4" stroke-linecap="butt" stroke-linejoin="round" fill="none" stroke="#000000" d="M128 752 160 784"/>
<path transform="matrix(1,0,0,-1,-47.4,816.6)" stroke-width=".4" stroke-linecap="butt" stroke-linejoin="round" fill="none" stroke="#000000" d="M176 672 160 688"/>
<path transform="matrix(1,0,0,-1,-47.4,816.6)" stroke-width=".4" stroke-linecap="butt" stroke-linejoin="round" fill="none" stroke="#000000" d="M160 672H176"/>
<path transform="matrix(1,0,0,-1,-47.4,816.6)" stroke-width=".4" stroke-linecap="butt" stroke-linejoin="round" fill="none" stroke="#000000" d="M176 672V784"/>
<path transform="matrix(1,0,0,-1,-47.4,816.6)" stroke-width=".4" stroke-linecap="butt" stroke-linejoin="round" fill="none" stroke="#000000" d="M160 736 176 672"/>
<path transform="matrix(1,0,0,-1,-47.4,816.6)" stroke-width=".4" stroke-linecap="butt" stroke-linejoin="round" fill="none" stroke="#000000" d="M144 672H160"/>
<path transform="matrix(1,0,0,-1,-47.4,816.6)" stroke-width=".4" stroke-linecap="butt" stroke-linejoin="round" fill="none" stroke="#000000" d="M160 736 176 784"/>
<path transform="matrix(1,0,0,-1,-47.4,816.6)" stroke-width=".4" stroke-linecap="butt" stroke-linejoin="round" fill="none" stroke="#000000" d="M160 784V736"/>
<path transform="matrix(1,0,0,-1,-47.4,816.6)" stroke-width=".4" stroke-linecap="butt" stroke-linejoin="round" fill="none" stroke="#000000" d="M176 784H160"/>
<path transform="matrix(1,0,0,-1,-47.4,816.6)" stroke-width=".4" stroke-linecap="butt" stroke-linejoin="round" fill="none" stroke="#000000" d="M160 672V688"/>
<path transform="matrix(1,0,0,-1,-47.4,816.6)" stroke-width=".4" stroke-linecap="butt" stroke-linejoin="round" fill="none" stroke="#000000" d="M144 688 160 672"/>
<path transform="matrix(1,0,0,-1,-47.4,816.6)" stroke-width=".4" stroke-linecap="butt" stroke-linejoin="round" fill="none" stroke="#000000" d="M144 688H160"/>
<path transform="matrix(1,0,0,-1,-47.4,816.6)" stroke-width=".4" stroke-linecap="butt" stroke-linejoin="round" fill="none" stroke="#000000" d="M160 688V736"/>
<path transform="matrix(1,0,0,-1,-47.4,816.6)" stroke-width=".4" stroke-linecap="butt" stroke-linejoin="round" fill="none" stroke="#000000" d="M96 672H144"/>
<path transform="matrix(1,0,0,-1,-47.4,816.6)" stroke-width=".4" stroke-linecap="butt" stroke-linejoin="round" fill="none" stroke="#000000" d="M96 688V672"/>
<path transform="matrix(1,0,0,-1,-47.4,816.6)" stroke-width=".4" stroke-linecap="butt" stroke-linejoin="round" fill="none" stroke="#000000" d="M64 736 80 688"/>
<path transform="matrix(1,0,0,-1,-47.4,816.6)" stroke-width=".4" stroke-linecap="butt" stroke-linejoin="round" fill="none" stroke="#000000" d="M80 688H96"/>
<path transform="matrix(1,0,0,-1,-47.4,816.6)" stroke-width=".4" stroke-linecap="butt" stroke-linejoin="round" fill="none" stroke="#000000" d="M96 688 144 672"/>
<path transform="matrix(1,0,0,-1,-47.4,816.6)" stroke-width=".4" stroke-linecap="butt" stroke-linejoin="round" fill="none" stroke="#000000" d="M144 688H96"/>
<path transform="matrix(1,0,0,-1,-47.4,816.6)" stroke-width=".4" stroke-linecap="butt" stroke-linejoin="round" fill="none" stroke="#000000" d="M144 672V688"/>
<path transform="matrix(1,0,0,-1,-47.4,816.6)" stroke-width=".4" stroke-linecap="butt" stroke-linejoin="round" fill="none" stroke="#000000" d="M64 736 96 688"/>
<path transform="matrix(1,0,0,-1,-47.4,816.6)" stroke-width=".4" stroke-linecap="butt" stroke-linejoin="round" fill="none" stroke="#000000" d="M96 688 112 736"/>
<path transform="matrix(1,0,0,-1,-47.4,816.6)" stroke-width=".4" stroke-linecap="butt" stroke-linejoin="round" fill="none" stroke="#000000" d="M64 672V736"/>
<path transform="matrix(1,0,0,-1,-47.4,816.6)" stroke-width=".4" stroke-linecap="butt" stroke-linejoin="round" fill="none" stroke="#000000" d="M87.0588 768H96"/>
<path transform="matrix(1,0,0,-1,-47.4,816.6)" stroke-width=".4" stroke-linecap="butt" stroke-linejoin="round" fill="none" stroke="#000000" d="M112 736 96 752"/>
<path transform="matrix(1,0,0,-1,-47.4,816.6)" stroke-width=".4" stroke-linecap="butt" stroke-linejoin="round" fill="none" stroke="#000000" d="M64 736H112"/>
<path transform="matrix(1,0,0,-1,-47.4,816.6)" stroke-width=".4" stroke-linecap="butt" stroke-linejoin="round" fill="none" stroke="#000000" d="M96 752 64 736"/>
<path transform="matrix(1,0,0,-1,-47.4,816.6)" stroke-width=".4" stroke-linecap="butt" stroke-linejoin="round" fill="none" stroke="#000000" d="M96 784V768"/>
<path transform="matrix(1,0,0,-1,-47.4,816.6)" stroke-width=".4" stroke-linecap="butt" stroke-linejoin="round" fill="none" stroke="#000000" d="M80 752V768"/>
<path transform="matrix(1,0,0,-1,-47.4,816.6)" stroke-width=".4" stroke-linecap="butt" stroke-linejoin="round" fill="none" stroke="#000000" d="M96 784 112 768"/>
<path transform="matrix(1,0,0,-1,-47.4,816.6)" stroke-width=".4" stroke-linecap="butt" stroke-linejoin="round" fill="none" stroke="#000000" d="M112 736 128 752"/>
<path transform="matrix(1,0,0,-1,-47.4,816.6)" stroke-width=".4" stroke-linecap="butt" stroke-linejoin="round" fill="none" stroke="#000000" d="M112 768V736"/>
<path transform="matrix(1,0,0,-1,-47.4,816.6)" stroke-width=".4" stroke-linecap="butt" stroke-linejoin="round" fill="none" stroke="#000000" d="M128 800 112 784"/>
<path transform="matrix(1,0,0,-1,-47.4,816.6)" stroke-width=".4" stroke-linecap="butt" stroke-linejoin="round" fill="none" stroke="#000000" d="M128 752V800"/>
<path transform="matrix(1,0,0,-1,-47.4,816.6)" stroke-width=".4" stroke-linecap="butt" stroke-linejoin="round" fill="none" stroke="#000000" d="M87.0588 768 96 784"/>
<path transform="matrix(1,0,0,-1,-47.4,816.6)" stroke-width=".4" stroke-linecap="butt" stroke-linejoin="round" fill="none" stroke="#000000" d="M64 784V768"/>
<path transform="matrix(1,0,0,-1,-47.4,816.6)" stroke-width=".4" stroke-linecap="butt" stroke-linejoin="round" fill="none" stroke="#000000" d="M64 768H80"/>
<path transform="matrix(1,0,0,-1,-47.4,816.6)" stroke-width=".4" stroke-linecap="butt" stroke-linejoin="round" fill="none" stroke="#000000" d="M112 768 128 752"/>
<path transform="matrix(1,0,0,-1,-47.4,816.6)" stroke-width=".4" stroke-linecap="butt" stroke-linejoin="round" fill="none" stroke="#000000" d="M112 784V768"/>
<path transform="matrix(1,0,0,-1,-47.4,816.6)" stroke-width=".4" stroke-linecap="butt" stroke-linejoin="round" fill="none" stroke="#000000" d="M128 752 112 784"/>
<path transform="matrix(1,0,0,-1,-47.4,816.6)" stroke-width=".4" stroke-linecap="butt" stroke-linejoin="round" fill="none" stroke="#000000" d="M80 752H96"/>
<path transform="matrix(1,0,0,-1,-47.4,816.6)" stroke-width=".4" stroke-linecap="butt" stroke-linejoin="round" fill="none" stroke="#000000" d="M87.0588 768 80 752"/>
<path transform="matrix(1,0,0,-1,-47.4,816.6)" stroke-width=".4" stroke-linecap="butt" stroke-linejoin="round" fill="none" stroke="#000000" d="M96 752 87.0588 768"/>
<path transform="matrix(1,0,0,-1,-47.4,816.6)" stroke-width=".4" stroke-linecap="butt" stroke-linejoin="round" fill="none" stroke="#000000" d="M48 752 64 736"/>
<path transform="matrix(1,0,0,-1,-47.4,816.6)" stroke-width=".4" stroke-linecap="butt" stroke-linejoin="round" fill="none" stroke="#000000" d="M96 784 80 800"/>
<path transform="matrix(1,0,0,-1,-47.4,816.6)" stroke-width=".4" stroke-linecap="butt" stroke-linejoin="round" fill="none" stroke="#000000" d="M80 784H96"/>
<path transform="matrix(1,0,0,-1,-47.4,816.6)" stroke-width=".4" stroke-linecap="butt" stroke-linejoin="round" fill="none" stroke="#000000" d="M64 768 48 800"/>
<path transform="matrix(1,0,0,-1,-47.4,816.6)" stroke-width=".4" stroke-linecap="butt" stroke-linejoin="round" fill="none" stroke="#000000" d="M48 752 64 768"/>
<path transform="matrix(1,0,0,-1,-47.4,816.6)" stroke-width=".4" stroke-linecap="butt" stroke-linejoin="round" fill="none" stroke="#000000" d="M96 672 80 688"/>
<path transform="matrix(1,0,0,-1,-47.4,816.6)" stroke-width=".4" stroke-linecap="butt" stroke-linejoin="round" fill="none" stroke="#000000" d="M80 672H96"/>
<path transform="matrix(1,0,0,-1,-47.4,816.6)" stroke-width=".4" stroke-linecap="butt" stroke-linejoin="round" fill="none" stroke="#000000" d="M64 672H80"/>
<path transform="matrix(1,0,0,-1,-47.4,816.6)" stroke-width=".4" stroke-linecap="butt" stroke-linejoin="round" fill="none" stroke="#000000" d="M80 688 64 672"/>
<path transform="matrix(1,0,0,-1,-47.4,816.6)" stroke-width=".4" stroke-linecap="butt" stroke-linejoin="round" fill="none" stroke="#000000" d="M80 672V688"/>
<path transform="matrix(1,0,0,-1,-47.4,816.6)" stroke-width=".4" stroke-linecap="butt" stroke-linejoin="round" fill="none" stroke="#000000" d="M87.0588 768 80 784"/>
<path transform="matrix(1,0,0,-1,-47.4,816.6)" stroke-width=".4" stroke-linecap="butt" stroke-linejoin="round" fill="none" stroke="#000000" d="M80 768H87.0588"/>
<path transform="matrix(1,0,0,-1,-47.4,816.6)" stroke-width=".4" stroke-linecap="butt" stroke-linejoin="round" fill="none" stroke="#000000" d="M64 672 48 752"/>
<path transform="matrix(1,0,0,-1,-47.4,816.6)" stroke-width=".4" stroke-linecap="butt" stroke-linejoin="round" fill="none" stroke="#000000" d="M112 768H96"/>
<path transform="matrix(1,0,0,-1,-47.4,816.6)" stroke-width=".4" stroke-linecap="butt" stroke-linejoin="round" fill="none" stroke="#000000" d="M96 752 112 768"/>
<path transform="matrix(1,0,0,-1,-47.4,816.6)" stroke-width=".4" stroke-linecap="butt" stroke-linejoin="round" fill="none" stroke="#000000" d="M96 768V752"/>
<path transform="matrix(1,0,0,-1,-47.4,816.6)" stroke-width=".4" stroke-linecap="butt" stroke-linejoin="round" fill="none" stroke="#000000" d="M48 752V800"/>
<path transform="matrix(1,0,0,-1,-47.4,816.6)" stroke-width=".4" stroke-linecap="butt" stroke-linejoin="round" fill="none" stroke="#000000" d="M80 800 64 784"/>
<path transform="matrix(1,0,0,-1,-47.4,816.6)" stroke-width=".4" stroke-linecap="butt" stroke-linejoin="round" fill="none" stroke="#000000" d="M80 784V800"/>
<path transform="matrix(1,0,0,-1,-47.4,816.6)" stroke-width=".4" stroke-linecap="butt" stroke-linejoin="round" fill="none" stroke="#000000" d="M48 800 64 784"/>
<path transform="matrix(1,0,0,-1,-47.4,816.6)" stroke-width=".4" stroke-linecap="butt" stroke-linejoin="round" fill="none" stroke="#000000" d="M64 816 48 800"/>
<path transform="matrix(1,0,0,-1,-47.4,816.6)" stroke-width=".4" stroke-linecap="butt" stroke-linejoin="round" fill="none" stroke="#000000" d="M64 784V816"/>
<path transform="matrix(1,0,0,-1,-47.4,816.6)" stroke-width=".4" stroke-linecap="butt" stroke-linejoin="round" fill="none" stroke="#000000" d="M80 752 64 768"/>
<path transform="matrix(1,0,0,-1,-47.4,816.6)" stroke-width=".4" stroke-linecap="butt" stroke-linejoin="round" fill="none" stroke="#000000" d="M64 736 80 752"/>
<path transform="matrix(1,0,0,-1,-47.4,816.6)" stroke-width=".4" stroke-linecap="butt" stroke-linejoin="round" fill="none" stroke="#000000" d="M64 768V736"/>
<path transform="matrix(1,0,0,-1,-47.4,816.6)" stroke-width=".4" stroke-linecap="butt" stroke-linejoin="round" fill="none" stroke="#000000" d="M112 816H64"/>
<path transform="matrix(1,0,0,-1,-47.4,816.6)" stroke-width=".4" stroke-linecap="butt" stroke-linejoin="round" fill="none" stroke="#000000" d="M64 816 80 800"/>
<path transform="matrix(1,0,0,-1,-47.4,816.6)" stroke-width=".4" stroke-linecap="butt" stroke-linejoin="round" fill="none" stroke="#000000" d="M96 800 64 816"/>
<path transform="matrix(1,0,0,-1,-47.4,816.6)" stroke-width=".4" stroke-linecap="butt" stroke-linejoin="round" fill="none" stroke="#000000" d="M80 800H96"/>
<path transform="matrix(1,0,0,-1,-47.4,816.6)" stroke-width=".4" stroke-linecap="butt" stroke-linejoin="round" fill="none" stroke="#000000" d="M144 688 160 736"/>
<path transform="matrix(1,0,0,-1,-47.4,816.6)" stroke-width=".4" stroke-linecap="butt" stroke-linejoin="round" fill="none" stroke="#000000" d="M112 736 144 688"/>
<path transform="matrix(1,0,0,-1,-47.4,816.6)" stroke-width=".4" stroke-linecap="butt" stroke-linejoin="round" fill="none" stroke="#000000" d="M160 736H112"/>
<path transform="matrix(1,0,0,-1,-47.4,816.6)" stroke-width=".4" stroke-linecap="butt" stroke-linejoin="round" fill="none" stroke="#000000" d="M96 800V784"/>
<path transform="matrix(1,0,0,-1,-47.4,816.6)" stroke-width=".4" stroke-linecap="butt" stroke-linejoin="round" fill="none" stroke="#000000" d="M96 784H112"/>
<path transform="matrix(1,0,0,-1,-47.4,816.6)" stroke-width=".4" stroke-linecap="butt" stroke-linejoin="round" fill="none" stroke="#000000" d="M80 768V784"/>
<path transform="matrix(1,0,0,-1,-47.4,816.6)" stroke-width=".4" stroke-linecap="butt" stroke-linejoin="round" fill="none" stroke="#000000" d="M64 784 80 768"/>
<path transform="matrix(1,0,0,-1,-47.4,816.6)" stroke-width=".4" stroke-linecap="butt" stroke-linejoin="round" fill="none" stroke="#000000" d="M80 784H64"/>
<path transform="matrix(1,0,0,-1,-47.4,816.6)" stroke-width=".4" stroke-linecap="butt" stroke-linejoin="round" fill="none" stroke="#000000" d="M96 800 112 784"/>
<path transform="matrix(1,0,0,-1,-47.4,816.6)" stroke-width=".4" stroke-linecap="butt" stroke-linejoin="round" fill="none" stroke="#000000" d="M112 816 96 800"/>
<path transform="matrix(1,0,0,-1,-47.4,816.6)" stroke-width=".4" stroke-linecap="butt" stroke-linejoin="round" fill="none" stroke="#000000" d="M112 784V816"/>
<path transform="matrix(1,0,0,-1,-47.4,816.6)" stroke-width=".4" stroke-linecap="butt" stroke-linejoin="round" fill="none" stroke="#000000" d="M128 800 176 784"/>
<path transform="matrix(1,0,0,-1,-47.4,816.6)" stroke-width=".4" stroke-linecap="butt" stroke-linejoin="round" fill="none" stroke="#000000" d="M112 816 128 800"/>
<path transform="matrix(1,0,0,-1,-47.4,816.6)" stroke-width=".4" stroke-linecap="butt" stroke-linejoin="round" fill="none" stroke="#000000" d="M176 784 112 816"/>
</g>
</svg>
