<?xml version="1.0" encoding="UTF-8" standalone="no"?>
<!DOCTYPE svg PUBLIC "-//W3C//DTD SVG 1.1//EN" "http://www.w3.org/Graphics/SVG/1.1/DTD/svg11.dtd">
<svg width="100%" height="100%" viewBox="0 0 108 45" version="1.1" xmlns="http://www.w3.org/2000/svg" xmlns:xlink="http://www.w3.org/1999/xlink" xml:space="preserve" xmlns:serif="http://www.serif.com/" style="fill-rule:evenodd;clip-rule:evenodd;stroke-linejoin:round;stroke-miterlimit:2;">
    <g transform="matrix(1,0,0,1,-71,-183)">
        <g>
            <rect x="66.17" y="175.17" width="124.37" height="76.53" style="fill:none;"/>
            <path d="M104.55,219.69C107.04,219.69 108.4,218.03 108.4,215.71L108.4,203.87L113.7,203.87L113.7,215.98C113.65,221.31 109.38,223.4 104.55,223.4C99.72,223.4 95.46,221.31 95.4,215.98L95.4,203.87L100.7,203.87L100.7,215.71C100.71,218.03 102.06,219.69 104.55,219.69Z" style="fill:rgb(0,174,239);fill-rule:nonzero;"/>
            <path d="M81.67,223L86.97,223L86.97,207.58L92.91,207.58L92.91,203.87L75.73,203.87L75.73,207.58L81.67,207.58L81.67,223Z" style="fill-rule:nonzero;"/>
            <path d="M94.41,194.55C93.12,194.96 91.78,194.63 91.79,192.9C91.79,190.26 97.98,188.05 98.84,185.75C99.05,185.18 99.07,184.7 98.79,184.72C98.59,184.73 98.75,185.02 98.31,185.45C95.75,188.02 91.45,188.01 88.15,189.49C85.99,190.46 79.65,193.44 81.11,200.09C81.18,200.41 81.37,201.46 81.56,201.46C81.78,201.46 81.78,200.83 81.78,200.07C81.73,196.11 86.42,195.01 87.95,192.42C88.13,192.11 88.45,191.68 88.52,191.88C88.56,191.98 88.53,192.12 88.47,192.4C87.99,194.53 85.77,195.89 86.4,197.41C87.22,199.38 89.57,197.91 90.3,196.64C90.49,196.29 90.6,196.07 90.73,196.11C90.83,196.14 90.82,196.54 90.76,196.9C90.37,199.19 89.85,200.47 88.17,201.78C87.63,202.2 86.79,202.28 86.9,202.6C86.93,202.68 87.29,202.67 87.58,202.64C92.04,202.35 95.77,197.1 96.76,193.66C96.86,193.42 96.89,193.19 96.79,193.11C96.66,193.01 96.46,193.24 96.26,193.42C95.75,193.88 95.05,194.35 94.41,194.55Z" style="fill-rule:nonzero;"/>
            <path d="M139.67,215.08C139.69,213 140.94,211.13 143.04,211.13C145.48,211.13 146.43,212.8 146.43,215.08L139.67,215.08ZM149.09,216.84L149.09,215.58C149.09,211.9 147,209.3 143.23,209.3C139.02,209.3 137.05,212.56 137.05,216.46C137.05,220.38 138.75,223.41 143.02,223.41C146.2,223.41 148.53,221.9 148.93,218.88L146.28,218.88C145.99,220.81 145.01,221.58 143.05,221.58C140.48,221.58 139.62,219.29 139.62,216.84L149.09,216.84Z" style="fill-rule:nonzero;"/>
            <rect x="152.14" y="203.87" width="2.52" height="19.13"/>
            <path d="M162.56,223L162.56,211.45L165.63,211.45L165.63,209.7L162.56,209.7L162.56,207.55C162.56,206.01 163.3,205.75 164.73,205.75C165.15,205.75 165.58,205.8 166,205.83L166,203.74C165.41,203.61 164.81,203.47 164.2,203.47C161.82,203.47 160.04,204.67 160.04,207.21L160.04,209.7L157.44,209.7L157.44,211.45L160.04,211.45L160.04,223L162.56,223Z" style="fill-rule:nonzero;"/>
            <path d="M167.07,209.7L167.07,211.45L169.35,211.45L169.35,219.93C169.35,221.7 169.38,223.4 173.12,223.4C173.7,223.4 174.25,223.35 174.84,223.24L174.84,221.31C174.43,221.41 173.91,221.47 173.51,221.47C172.61,221.47 171.87,221.02 171.87,220.07L171.87,211.46L174.94,211.46L174.94,209.71L171.87,209.71L171.87,206.08L169.35,206.87L169.35,209.71L167.07,209.7Z" style="fill-rule:nonzero;"/>
            <path d="M119,223L125.57,223C133.75,223 134.61,216.07 134.61,213.43C134.61,210.79 133.75,203.86 125.57,203.86L119,203.86L119,223ZM121.65,206.15L125.57,206.15C129.99,206.15 131.83,209.49 131.83,213.44C131.83,217.39 129.99,220.73 125.57,220.73L121.65,220.73L121.65,206.15Z" style="fill-rule:nonzero;"/>
        </g>
    </g>
</svg>
